<svg xmlns:xlink="http://www.w3.org/1999/xlink">


    <symbol viewBox="0 0 97.713 97.713" id="location" xmlns="http://www.w3.org/2000/svg">
        <defs>
            <g id="loc-logo">
                <path xmlns="http://www.w3.org/2000/svg" class="active-path" d="M 48.855 0 C 29.021 0 12.883 16.138 12.883 35.974 c 0 5.174 1.059 10.114 3.146 14.684 c 8.994 19.681 26.238 40.46 31.31 46.359 c 0.38 0.441 0.934 0.695 1.517 0.695 s 1.137 -0.254 1.517 -0.695 c 5.07 -5.898 22.314 -26.676 31.311 -46.359 c 2.088 -4.57 3.146 -9.51 3.146 -14.684 C 84.828 16.138 68.69 0 48.855 0 Z M 48.855 54.659 c -10.303 0 -18.686 -8.383 -18.686 -18.686 c 0 -10.304 8.383 -18.687 18.686 -18.687 s 18.686 8.383 18.686 18.687 C 67.542 46.276 59.159 54.659 48.855 54.659 Z"/>
        </g>
        </defs>
        <use xlink:href="#loc-logo" transform="translate(0 0 97.713 97.713)"/>

    </symbol>



    <symbol viewBox="0 0 528.899 528.899" id="pencil" xmlns="http://www.w3.org/2000/svg">
        <defs>
            <g id="pencil-logo">
                <path xmlns="http://www.w3.org/2000/svg" d="M328.883,89.125l107.59,107.589l-272.34,272.34L56.604,361.465L328.883,89.125z M518.113,63.177l-47.981-47.981   c-18.543-18.543-48.653-18.543-67.259,0l-45.961,45.961l107.59,107.59l53.611-53.611   C532.495,100.753,532.495,77.559,518.113,63.177z M0.3,512.69c-1.958,8.812,5.998,16.708,14.811,14.565l119.891-29.069   L27.473,390.597L0.3,512.69z"/>
            </g>
        </defs>
        <use xlink:href="#pencil-logo" transform="translate(0 0 528.899 528.899)"/>

    </symbol>
    <symbol viewBox="0 0 563.43 563.43" id="man" xmlns="http://www.w3.org/2000/svg">
        <defs>
            <g id="man-logo">
            <path xmlns="http://www.w3.org/2000/svg" d="M280.79,314.559c83.266,0,150.803-67.538,150.803-150.803S364.055,13.415,280.79,13.415S129.987,80.953,129.987,163.756  S197.524,314.559,280.79,314.559z M280.79,52.735c61.061,0,111.021,49.959,111.021,111.021S341.851,274.776,280.79,274.776  s-111.021-49.959-111.021-111.021S219.728,52.735,280.79,52.735z"/>
            <path xmlns="http://www.w3.org/2000/svg" d="M19.891,550.015h523.648c11.102,0,19.891-8.789,19.891-19.891c0-104.082-84.653-189.198-189.198-189.198H189.198  C85.116,340.926,0,425.579,0,530.124C0,541.226,8.789,550.015,19.891,550.015z M189.198,380.708h185.034  c75.864,0,138.313,56.436,148.028,129.524H41.17C50.884,437.607,113.334,380.708,189.198,380.708z"/>
        </g>
        </defs>
        <use xlink:href="#man-logo" transform="translate(0 0 563.43 563.43)"/>

    </symbol>
    <symbol viewBox="0 0 512.001 512.001" id="mail" xmlns="http://www.w3.org/2000/svg">
        <defs>
            <g id="mail-logo">
                <path xmlns="http://www.w3.org/2000/svg" d="M511.646,126.634c-0.021-14.449-11.782-26.189-26.227-26.189c-0.012,0-0.024,0-0.034,0L26.19,101.076    c-7.005,0.009-13.588,2.746-18.535,7.706C2.709,113.743-0.009,120.334,0,127.337l0.355,258.029    c0.009,7.005,2.746,13.588,7.706,18.535c4.951,4.938,11.526,7.655,18.519,7.655c0.012,0,0.025,0,0.035,0l459.194-0.631    c14.458-0.02,26.207-11.799,26.19-26.261L511.646,126.634z M456.611,126.71L256.02,266.154L55.04,127.262L456.611,126.71z     M340.846,292.471l118.971,92.265l-407.972,0.56l119.696-92.825c5.722-4.439,6.764-12.675,2.326-18.399    c-4.439-5.722-12.675-6.764-18.399-2.326L26.561,371.715l-0.32-232.475l222.344,153.657c2.244,1.551,4.849,2.325,7.455,2.325    c2.617,0,5.236-0.783,7.485-2.346l221.912-154.264l0.336,233.066l-128.856-99.931c-5.719-4.437-13.959-3.396-18.397,2.326    C334.081,279.795,335.122,288.033,340.846,292.471z"/>            </g>
        </defs>
        <use xlink:href="#mail-logo" transform="translate(0 0 512.001 512.001)"/>

    </symbol>
    <symbol viewBox="0 0 473.806 473.806" id="tel" xmlns="http://www.w3.org/2000/svg">
        <defs>
            <g id="tel-logo">
                <path xmlns="http://www.w3.org/2000/svg" d="M374.456,293.506c-9.7-10.1-21.4-15.5-33.8-15.5c-12.3,0-24.1,5.3-34.2,15.4l-31.6,31.5c-2.6-1.4-5.2-2.7-7.7-4    c-3.6-1.8-7-3.5-9.9-5.3c-29.6-18.8-56.5-43.3-82.3-75c-12.5-15.8-20.9-29.1-27-42.6c8.2-7.5,15.8-15.3,23.2-22.8    c2.8-2.8,5.6-5.7,8.4-8.5c21-21,21-48.2,0-69.2l-27.3-27.3c-3.1-3.1-6.3-6.3-9.3-9.5c-6-6.2-12.3-12.6-18.8-18.6    c-9.7-9.6-21.3-14.7-33.5-14.7s-24,5.1-34,14.7c-0.1,0.1-0.1,0.1-0.2,0.2l-34,34.3c-12.8,12.8-20.1,28.4-21.7,46.5    c-2.4,29.2,6.2,56.4,12.8,74.2c16.2,43.7,40.4,84.2,76.5,127.6c43.8,52.3,96.5,93.6,156.7,122.7c23,10.9,53.7,23.8,88,26    c2.1,0.1,4.3,0.2,6.3,0.2c23.1,0,42.5-8.3,57.7-24.8c0.1-0.2,0.3-0.3,0.4-0.5c5.2-6.3,11.2-12,17.5-18.1c4.3-4.1,8.7-8.4,13-12.9    c9.9-10.3,15.1-22.3,15.1-34.6c0-12.4-5.3-24.3-15.4-34.3L374.456,293.506z M410.256,398.806    C410.156,398.806,410.156,398.906,410.256,398.806c-3.9,4.2-7.9,8-12.2,12.2c-6.5,6.2-13.1,12.7-19.3,20    c-10.1,10.8-22,15.9-37.6,15.9c-1.5,0-3.1,0-4.6-0.1c-29.7-1.9-57.3-13.5-78-23.4c-56.6-27.4-106.3-66.3-147.6-115.6    c-34.1-41.1-56.9-79.1-72-119.9c-9.3-24.9-12.7-44.3-11.2-62.6c1-11.7,5.5-21.4,13.8-29.7l34.1-34.1c4.9-4.6,10.1-7.1,15.2-7.1    c6.3,0,11.4,3.8,14.6,7c0.1,0.1,0.2,0.2,0.3,0.3c6.1,5.7,11.9,11.6,18,17.9c3.1,3.2,6.3,6.4,9.5,9.7l27.3,27.3    c10.6,10.6,10.6,20.4,0,31c-2.9,2.9-5.7,5.8-8.6,8.6c-8.4,8.6-16.4,16.6-25.1,24.4c-0.2,0.2-0.4,0.3-0.5,0.5    c-8.6,8.6-7,17-5.2,22.7c0.1,0.3,0.2,0.6,0.3,0.9c7.1,17.2,17.1,33.4,32.3,52.7l0.1,0.1c27.6,34,56.7,60.5,88.8,80.8    c4.1,2.6,8.3,4.7,12.3,6.7c3.6,1.8,7,3.5,9.9,5.3c0.4,0.2,0.8,0.5,1.2,0.7c3.4,1.7,6.6,2.5,9.9,2.5c8.3,0,13.5-5.2,15.2-6.9    l34.2-34.2c3.4-3.4,8.8-7.5,15.1-7.5c6.2,0,11.3,3.9,14.4,7.3c0.1,0.1,0.1,0.1,0.2,0.2l55.1,55.1    C420.456,377.706,420.456,388.206,410.256,398.806z"/>
                <path xmlns="http://www.w3.org/2000/svg" d="M256.056,112.706c26.2,4.4,50,16.8,69,35.8s31.3,42.8,35.8,69c1.1,6.6,6.8,11.2,13.3,11.2c0.8,0,1.5-0.1,2.3-0.2    c7.4-1.2,12.3-8.2,11.1-15.6c-5.4-31.7-20.4-60.6-43.3-83.5s-51.8-37.9-83.5-43.3c-7.4-1.2-14.3,3.7-15.6,11    S248.656,111.506,256.056,112.706z"/>
                <path xmlns="http://www.w3.org/2000/svg" d="M473.256,209.006c-8.9-52.2-33.5-99.7-71.3-137.5s-85.3-62.4-137.5-71.3c-7.3-1.3-14.2,3.7-15.5,11    c-1.2,7.4,3.7,14.3,11.1,15.6c46.6,7.9,89.1,30,122.9,63.7c33.8,33.8,55.8,76.3,63.7,122.9c1.1,6.6,6.8,11.2,13.3,11.2    c0.8,0,1.5-0.1,2.3-0.2C469.556,223.306,474.556,216.306,473.256,209.006z"/>            </g>
        </defs>
        <use xlink:href="#tel-logo" transform="translate(0 0 473.806 473.806)"/>

    </symbol>
    <symbol viewBox="0 0 129 129" id="date" xmlns="http://www.w3.org/2000/svg">
        <defs>
            <g id="date-logo">
                <path xmlns="http://www.w3.org/2000/svg" d="m10.5,118.1h107.9c2.3,0 4.1-1.8 4.1-4.1v-91.5c0-2.3-1.8-4.1-4.1-4.1h-20.3v-3.5c0-2.3-1.8-4.1-4.1-4.1-2.3,0-4.1,1.8-4.1,4.1v3.5h-50.2v-3.5c0-2.3-1.8-4.1-4.1-4.1-2.3,0-4.1,1.8-4.1,4.1v3.5h-21c-2.3,0-4.1,1.8-4.1,4.1v91.6c0,2.2 1.9,4 4.1,4zm4.1-91.5h16.9v2.2c0,2.3 1.8,4.1 4.1,4.1 2.3,0 4.1-1.8 4.1-4.1v-2.2h50.2v2.2c0,2.3 1.8,4.1 4.1,4.1 2.3,0 4.1-1.8 4.1-4.1v-2.2h16.3v10.6h-99.8v-10.6zm0,18.8h99.7v64.6h-99.7v-64.6z"/>
                <path xmlns="http://www.w3.org/2000/svg" d="m94,64.2h-59c-2.3,0-4.1,1.8-4.1,4.1 0,2.3 1.8,4.1 4.1,4.1h59c2.3,0 4.1-1.8 4.1-4.1 0-2.3-1.8-4.1-4.1-4.1z"/>
                <path xmlns="http://www.w3.org/2000/svg" d="m64.5,84h-29.5c-2.3,0-4.1,1.8-4.1,4.1 0,2.3 1.8,4.1 4.1,4.1h29.5c2.3,0 4.1-1.8 4.1-4.1 0-2.3-1.8-4.1-4.1-4.1z"/>

            </g>
        </defs>
        <use xlink:href="#date-logo" transform="translate(0 0 129 129)"/>

    </symbol>
    <symbol viewBox="0 0 612 612" id="time" xmlns="http://www.w3.org/2000/svg">
        <defs>
            <g id="time-logo">
                <path xmlns="http://www.w3.org/2000/svg" d="M587.572,186.881c-32.266-75.225-87.096-129.934-162.949-162.285C386.711,8.427,346.992,0.168,305.497,0.168    c-41.488,0-80.914,8.181-118.784,24.428C111.488,56.861,56.415,111.535,24.092,186.881C7.895,224.629,0,264.176,0,305.664    c0,41.496,7.895,81.371,24.092,119.127c32.323,75.346,87.403,130.348,162.621,162.621c37.877,16.247,77.295,24.42,118.784,24.42    c41.489,0,81.214-8.259,119.12-24.42c75.853-32.352,130.683-87.403,162.956-162.621C603.819,386.914,612,347.16,612,305.664    C612,264.176,603.826,224.757,587.572,186.881z M538.724,440.853c-24.021,41.195-56.929,73.876-98.375,98.039    c-41.195,24.021-86.332,36.135-134.845,36.135c-36.47,0-71.27-7.024-104.4-21.415c-33.129-14.384-61.733-33.294-85.661-57.215    c-23.928-23.928-42.973-52.811-57.214-85.997c-14.199-33.065-21.08-68.258-21.08-104.735c0-48.52,11.921-93.428,35.807-134.509    c23.971-41.231,56.886-73.947,98.039-98.04c41.146-24.092,85.99-36.142,134.502-36.142c48.52,0,93.649,12.121,134.845,36.142    c41.446,24.164,74.283,56.879,98.375,98.039c24.092,41.153,36.135,85.99,36.135,134.509    C574.852,354.185,562.888,399.399,538.724,440.853z"/>
                <path xmlns="http://www.w3.org/2000/svg" d="M324.906,302.988V129.659c0-10.372-9.037-18.738-19.41-18.738c-9.701,0-18.403,8.366-18.403,18.738v176.005    c0,0.336,0.671,1.678,0.671,2.678c-0.671,6.024,1.007,11.043,5.019,15.062l100.053,100.046c6.695,6.695,19.073,6.695,25.763,0    c7.694-7.695,7.188-18.86,0-26.099L324.906,302.988z"/>
            </g>
        </defs>
        <use xlink:href="#time-logo" transform="translate(0 0 612 612)"/>

    </symbol>
    <symbol viewBox="0 -46 512 511" id="comments" xmlns="http://www.w3.org/2000/svg">
        <defs>
            <g id="comments-logo">
                <path xmlns="http://www.w3.org/2000/svg" d="m467 .5h-422c-24.8125 0-45 20.1875-45 45v240c0 24.8125 20.1875 45 45 45h46v75c0 12.402344 14.183594 19.363281 24 12l116-87h236c24.8125 0 45-20.1875 45-45v-240c0-24.8125-20.1875-45-45-45zm15 285c0 8.269531-6.730469 15-15 15h-241c-3.246094 0-6.402344 1.054688-9 3l-96 72v-60c0-8.285156-6.714844-15-15-15h-61c-8.269531 0-15-6.730469-15-15v-240c0-8.269531 6.730469-15 15-15h422c8.269531 0 15 6.730469 15 15zm0 0"/>
                <path xmlns="http://www.w3.org/2000/svg" d="m406 90.5h-300c-8.285156 0-15 6.714844-15 15s6.714844 15 15 15h300c8.285156 0 15-6.714844 15-15s-6.714844-15-15-15zm0 0"/>
                <path xmlns="http://www.w3.org/2000/svg" d="m301 165.5c0-8.285156-6.714844-15-15-15h-180c-8.285156 0-15 6.714844-15 15s6.714844 15 15 15h180c8.285156 0 15-6.714844 15-15zm0 0"/>
                <path xmlns="http://www.w3.org/2000/svg" d="m406 150.5h-60c-8.285156 0-15 6.714844-15 15s6.714844 15 15 15h60c8.285156 0 15-6.714844 15-15s-6.714844-15-15-15zm0 0"/>
                <path xmlns="http://www.w3.org/2000/svg" d="m196 210.5h-90c-8.285156 0-15 6.714844-15 15s6.714844 15 15 15h90c8.285156 0 15-6.714844 15-15s-6.714844-15-15-15zm0 0"/>
                <path xmlns="http://www.w3.org/2000/svg" d="m406 210.5h-150c-8.285156 0-15 6.714844-15 15s6.714844 15 15 15h150c8.285156 0 15-6.714844 15-15s-6.714844-15-15-15zm0 0"/>
            </g>
        </defs>
        <use xlink:href="#comments-logo" transform="translate(0 -46 512 511)"/>

    </symbol>
    <symbol viewBox="0 0 513.597 513.597" id="address-icon" xmlns="http://www.w3.org/2000/svg">
        <defs>
            <g id="address">
                <path d="M263.278,0.107C158.977-3.408,73.323,80.095,73.323,183.602c0,117.469,112.73,202.72,175.915,325.322   c3.208,6.225,12.169,6.233,15.388,0.009c57.16-110.317,154.854-184.291,172.959-290.569   C456.331,108.387,374.776,3.866,263.278,0.107z M256.923,279.773c-53.113,0-96.171-43.059-96.171-96.171   s43.059-96.171,96.171-96.171c53.113,0,96.172,43.059,96.172,96.171S310.036,279.773,256.923,279.773z"
                      class="active-path"/>
            </g>
        </defs>
        <use xlink:href="#address" transform="translate(0 0 513.597 513.597)"/>
    </symbol>

    <symbol viewBox="0 0 548.358 548.358" id="vk-icon" xmlns="http://www.w3.org/2000/svg">
        <defs>
            <g id="vk">
                <path xmlns="http://www.w3.org/2000/svg"
                      d="M545.451,400.298c-0.664-1.431-1.283-2.618-1.858-3.569c-9.514-17.135-27.695-38.167-54.532-63.102l-0.567-0.571   l-0.284-0.28l-0.287-0.287h-0.288c-12.18-11.611-19.893-19.418-23.123-23.415c-5.91-7.614-7.234-15.321-4.004-23.13   c2.282-5.9,10.854-18.36,25.696-37.397c7.807-10.089,13.99-18.175,18.556-24.267c32.931-43.78,47.208-71.756,42.828-83.939   l-1.701-2.847c-1.143-1.714-4.093-3.282-8.846-4.712c-4.764-1.427-10.853-1.663-18.278-0.712l-82.224,0.568   c-1.332-0.472-3.234-0.428-5.712,0.144c-2.475,0.572-3.713,0.859-3.713,0.859l-1.431,0.715l-1.136,0.859   c-0.952,0.568-1.999,1.567-3.142,2.995c-1.137,1.423-2.088,3.093-2.848,4.996c-8.952,23.031-19.13,44.444-30.553,64.238   c-7.043,11.803-13.511,22.032-19.418,30.693c-5.899,8.658-10.848,15.037-14.842,19.126c-4,4.093-7.61,7.372-10.852,9.849   c-3.237,2.478-5.708,3.525-7.419,3.142c-1.715-0.383-3.33-0.763-4.859-1.143c-2.663-1.714-4.805-4.045-6.42-6.995   c-1.622-2.95-2.714-6.663-3.285-11.136c-0.568-4.476-0.904-8.326-1-11.563c-0.089-3.233-0.048-7.806,0.145-13.706   c0.198-5.903,0.287-9.897,0.287-11.991c0-7.234,0.141-15.085,0.424-23.555c0.288-8.47,0.521-15.181,0.716-20.125   c0.194-4.949,0.284-10.185,0.284-15.705s-0.336-9.849-1-12.991c-0.656-3.138-1.663-6.184-2.99-9.137   c-1.335-2.95-3.289-5.232-5.853-6.852c-2.569-1.618-5.763-2.902-9.564-3.856c-10.089-2.283-22.936-3.518-38.547-3.71   c-35.401-0.38-58.148,1.906-68.236,6.855c-3.997,2.091-7.614,4.948-10.848,8.562c-3.427,4.189-3.905,6.475-1.431,6.851   c11.422,1.711,19.508,5.804,24.267,12.275l1.715,3.429c1.334,2.474,2.666,6.854,3.999,13.134c1.331,6.28,2.19,13.227,2.568,20.837   c0.95,13.897,0.95,25.793,0,35.689c-0.953,9.9-1.853,17.607-2.712,23.127c-0.859,5.52-2.143,9.993-3.855,13.418   c-1.715,3.426-2.856,5.52-3.428,6.28c-0.571,0.76-1.047,1.239-1.425,1.427c-2.474,0.948-5.047,1.431-7.71,1.431   c-2.667,0-5.901-1.334-9.707-4c-3.805-2.666-7.754-6.328-11.847-10.992c-4.093-4.665-8.709-11.184-13.85-19.558   c-5.137-8.374-10.467-18.271-15.987-29.691l-4.567-8.282c-2.855-5.328-6.755-13.086-11.704-23.267   c-4.952-10.185-9.329-20.037-13.134-29.554c-1.521-3.997-3.806-7.04-6.851-9.134l-1.429-0.859c-0.95-0.76-2.475-1.567-4.567-2.427   c-2.095-0.859-4.281-1.475-6.567-1.854l-78.229,0.568c-7.994,0-13.418,1.811-16.274,5.428l-1.143,1.711   C0.288,140.146,0,141.668,0,143.763c0,2.094,0.571,4.664,1.714,7.707c11.42,26.84,23.839,52.725,37.257,77.659   c13.418,24.934,25.078,45.019,34.973,60.237c9.897,15.229,19.985,29.602,30.264,43.112c10.279,13.515,17.083,22.176,20.412,25.981   c3.333,3.812,5.951,6.662,7.854,8.565l7.139,6.851c4.568,4.569,11.276,10.041,20.127,16.416   c8.853,6.379,18.654,12.659,29.408,18.85c10.756,6.181,23.269,11.225,37.546,15.126c14.275,3.905,28.169,5.472,41.684,4.716h32.834   c6.659-0.575,11.704-2.669,15.133-6.283l1.136-1.431c0.764-1.136,1.479-2.901,2.139-5.276c0.668-2.379,1-5,1-7.851   c-0.195-8.183,0.428-15.558,1.852-22.124c1.423-6.564,3.045-11.513,4.859-14.846c1.813-3.33,3.859-6.14,6.136-8.418   c2.282-2.283,3.908-3.666,4.862-4.142c0.948-0.479,1.705-0.804,2.276-0.999c4.568-1.522,9.944-0.048,16.136,4.429   c6.187,4.473,11.99,9.996,17.418,16.56c5.425,6.57,11.943,13.941,19.555,22.124c7.617,8.186,14.277,14.271,19.985,18.274   l5.708,3.426c3.812,2.286,8.761,4.38,14.853,6.283c6.081,1.902,11.409,2.378,15.984,1.427l73.087-1.14   c7.229,0,12.854-1.197,16.844-3.572c3.998-2.379,6.373-5,7.139-7.851c0.764-2.854,0.805-6.092,0.145-9.712   C546.782,404.25,546.115,401.725,545.451,400.298z"/>
            </g>
        </defs>
        <use xlink:href="#vk" transform="translate(0 0 548.358 548.358)"/>
    </symbol>

    <symbol viewBox="0 0 96.124 96.123" id="fb-icon" xmlns="http://www.w3.org/2000/svg">
        <defs>
            <g id="fb">
                <path d="M72.089,0.02L59.624,0C45.62,0,36.57,9.285,36.57,23.656v10.907H24.037c-1.083,0-1.96,0.878-1.96,1.961v15.803   c0,1.083,0.878,1.96,1.96,1.96h12.533v39.876c0,1.083,0.877,1.96,1.96,1.96h16.352c1.083,0,1.96-0.878,1.96-1.96V54.287h14.654   c1.083,0,1.96-0.877,1.96-1.96l0.006-15.803c0-0.52-0.207-1.018-0.574-1.386c-0.367-0.368-0.867-0.575-1.387-0.575H56.842v-9.246   c0-4.444,1.059-6.7,6.848-6.7l8.397-0.003c1.082,0,1.959-0.878,1.959-1.96V1.98C74.046,0.899,73.17,0.022,72.089,0.02z"/>
            </g>
        </defs>
        <use xlink:href="#fb" transform="translate(0 0 96.124 96.123)"/>
    </symbol>

    <symbol viewBox="0 0 95.481 95.481" id="ok-icon" xmlns="http://www.w3.org/2000/svg">
        <defs>
            <g id="ok">
                <path d="M43.041,67.254c-7.402-0.772-14.076-2.595-19.79-7.064c-0.709-0.556-1.441-1.092-2.088-1.713    c-2.501-2.402-2.753-5.153-0.774-7.988c1.693-2.426,4.535-3.075,7.489-1.682c0.572,0.27,1.117,0.607,1.639,0.969    c10.649,7.317,25.278,7.519,35.967,0.329c1.059-0.812,2.191-1.474,3.503-1.812c2.551-0.655,4.93,0.282,6.299,2.514    c1.564,2.549,1.544,5.037-0.383,7.016c-2.956,3.034-6.511,5.229-10.461,6.761c-3.735,1.448-7.826,2.177-11.875,2.661    c0.611,0.665,0.899,0.992,1.281,1.376c5.498,5.524,11.02,11.025,16.5,16.566c1.867,1.888,2.257,4.229,1.229,6.425    c-1.124,2.4-3.64,3.979-6.107,3.81c-1.563-0.108-2.782-0.886-3.865-1.977c-4.149-4.175-8.376-8.273-12.441-12.527    c-1.183-1.237-1.752-1.003-2.796,0.071c-4.174,4.297-8.416,8.528-12.683,12.735c-1.916,1.889-4.196,2.229-6.418,1.15    c-2.362-1.145-3.865-3.556-3.749-5.979c0.08-1.639,0.886-2.891,2.011-4.014c5.441-5.433,10.867-10.88,16.295-16.322    C42.183,68.197,42.518,67.813,43.041,67.254z"/>
                <path d="M47.55,48.329c-13.205-0.045-24.033-10.992-23.956-24.218C23.67,10.739,34.505-0.037,47.84,0    c13.362,0.036,24.087,10.967,24.02,24.478C71.792,37.677,60.889,48.375,47.55,48.329z M59.551,24.143    c-0.023-6.567-5.253-11.795-11.807-11.801c-6.609-0.007-11.886,5.316-11.835,11.943c0.049,6.542,5.324,11.733,11.896,11.709    C54.357,35.971,59.573,30.709,59.551,24.143z"/>
            </g>
        </defs>
        <use xlink:href="#ok" transform="translate(0 0 95.481 95.481)"/>
    </symbol>

    <symbol viewBox="0 0 24 24" id="moyMir-icon" xmlns="http://www.w3.org/2000/svg">
        <defs>
            <g id="moyMir">
                <circle xmlns="http://www.w3.org/2000/svg" cx="8.17665" cy="7.13186" r="1.63874"/>
                <circle xmlns="http://www.w3.org/2000/svg" cx="15.82411" cy="7.13186" r="1.63874"/>
                <path xmlns="http://www.w3.org/2000/svg"
                      d="M21.82714,16.37608,19.351,12.41544a1.10992,1.10992,0,0,0-1.8823,1.17668l.25329.40519a7.73453,7.73453,0,0,1-11.456.006l.25708-.41121a1.10992,1.10992,0,0,0-1.8823-1.17668L2.16456,16.37608a1.10992,1.10992,0,0,0,1.8823,1.17668l1.00732-1.61113a9.95508,9.95508,0,0,0,13.88007-.00524l1.01057,1.61637a1.10992,1.10992,0,0,0,1.8823-1.17668Z"/>
            </g>
        </defs>
        <use xlink:href="#moyMir" transform="translate(0 0 24 24)"/>
    </symbol>

    <symbol viewBox="0 0 612 612" id="twitter-icon" xmlns="http://www.w3.org/2000/svg">
        <defs>
            <g id="twitter">
                <path xmlns="http://www.w3.org/2000/svg"
                      d="M612,116.258c-22.525,9.981-46.694,16.75-72.088,19.772c25.929-15.527,45.777-40.155,55.184-69.411    c-24.322,14.379-51.169,24.82-79.775,30.48c-22.907-24.437-55.49-39.658-91.63-39.658c-69.334,0-125.551,56.217-125.551,125.513    c0,9.828,1.109,19.427,3.251,28.606C197.065,206.32,104.556,156.337,42.641,80.386c-10.823,18.51-16.98,40.078-16.98,63.101    c0,43.559,22.181,81.993,55.835,104.479c-20.575-0.688-39.926-6.348-56.867-15.756v1.568c0,60.806,43.291,111.554,100.693,123.104    c-10.517,2.83-21.607,4.398-33.08,4.398c-8.107,0-15.947-0.803-23.634-2.333c15.985,49.907,62.336,86.199,117.253,87.194    c-42.947,33.654-97.099,53.655-155.916,53.655c-10.134,0-20.116-0.612-29.944-1.721c55.567,35.681,121.536,56.485,192.438,56.485    c230.948,0,357.188-191.291,357.188-357.188l-0.421-16.253C573.872,163.526,595.211,141.422,612,116.258z"/>
            </g>
        </defs>
        <use xlink:href="#twitter" transform="translate(0 0 612 612)"/>
    </symbol>

    <symbol viewBox="0 0 512.019 512.019" id="viber-icon" xmlns="http://www.w3.org/2000/svg">
        <defs>
            <g id="viber">
                <path xmlns="http://www.w3.org/2000/svg"
                      d="M255.994,42.372c5.88,4.412,11.025,4.89,26.402,5.76c45.056,2.586,73.626,12.211,105.404,35.541     c38.903,28.459,63.309,68.156,72.559,117.99c2.381,12.902,3.558,23.851,4.36,40.354c0.486,11.068,0.87,15.36,3.388,20.207     c3.55,6.613,10.428,11.008,18.406,11.75c0.785,0.068,1.57,0.102,2.347,0.102c7.1,0,13.688-3.004,17.894-8.235     c5.589-6.81,5.581-13.158,5.035-26.829c-1.604-42.342-10.863-80.384-27.52-113.067c-11.878-23.253-23.219-38.485-43.358-58.231     c-21.478-20.881-38.033-32.563-63.309-44.638C350.825,10.295,331.881,6.25,304.139,2.863c-5.598-0.64-16.137-1.476-23.45-1.715     c-13.935-0.461-19.379-0.085-25.813,5.632c-4.932,4.343-7.62,10.94-7.398,18.116C247.699,32.021,250.788,38.361,255.994,42.372z"/>
                <path xmlns="http://www.w3.org/2000/svg"
                      d="M396.436,225.422c0,11.989,0.99,23.245,12.808,29.065c3.243,1.681,7.467,2.526,11.588,2.526     c3.661,0,7.228-0.674,9.95-2.039c4.779-2.458,9.6-7.646,11.486-12.339c2.398-6.05,1.306-27.742,0.623-33.86     c-3.2-27.332-12.698-53.137-27.46-74.615c-26.743-38.852-66.816-62.345-119.083-69.828c-17.724-2.611-30.891-3.533-38.639,8.294     c-6.084,8.986-5.308,20.446,1.877,28.476c5.726,6.494,13.926,7.962,21.18,8.542c20.77,1.638,44.032,8.439,59.281,17.323     l0.026,0.008c17.741,10.274,32.427,25.208,42.487,43.196C391.376,185.904,396.436,206.043,396.436,225.422z"/>
                <path xmlns="http://www.w3.org/2000/svg"
                      d="M350.977,152.133c-11.674-10.692-25.353-17.391-43.017-21.077c-4.045-0.853-10.906-1.596-15.172-1.835     c-7.356-0.452-10.385-0.375-15.616,2.167c-6.323,3.174-10.752,9.062-12.169,16.137c-1.408,7.031,0.393,14.106,5.001,19.482     c5.325,6.084,10.778,7.603,21.777,8.909c18.381,2.202,28.732,8.388,34.586,20.659c2.961,6.263,4.642,13.124,5.615,22.989     c1.007,9.242,2.816,15.172,9.395,20.036c4.139,3.123,9.378,4.668,14.566,4.668c5.675,0,11.298-1.852,15.403-5.513l0.051-0.034     c8.482-7.671,8.841-17.186,6.545-32.034C374.384,182.904,366.081,166.076,350.977,152.133z"/>
                <path xmlns="http://www.w3.org/2000/svg"
                      d="M511.965,413.822c-0.418-9.293-3.61-17.604-9.566-24.781c-5.751-6.784-42.487-35.831-58.88-47.053     c-12.749-8.678-32.896-20.898-42.317-25.668c-13.918-6.921-27.913-8.132-41.685-3.567c-3.012,1.007-5.163,1.903-7.185,2.961     c-6.972,3.661-12.092,9.429-22.042,21.666c-10.658,12.868-12.877,15.369-12.851,15.369c-1.007,0.606-2.611,1.459-4.557,2.347     c-7.927,3.61-20.924,0.64-42.061-9.66c-17.835-8.627-33.852-19.703-51.942-35.9c-15.411-13.73-30.908-31.539-39.509-45.355     c-11.947-19.166-19.174-41.344-19.26-51.644c0-4.011,1.758-9.771,3.661-12.945l0.836-0.862c0.563-0.546,1.186-1.135,2.039-1.886     c2.97-2.671,7.27-6.246,11.75-9.788c19.661-15.488,25.89-21.76,29.218-33.408c3.217-10.769,0.393-24.03-8.892-41.719     c-13.833-26.394-57.694-82.569-75.998-94.413c-3.012-1.886-7.97-4.429-11.477-5.606c-7.509-2.654-18.295-3.558-25.003-2.133     c-9.284,1.903-19.473,7.748-41.958,24.081C31.965,42.878,12.97,60.516,7.815,68.947c-12.16,20.42-9.062,38.135,1.963,67.806     c10.505,28.314,23.979,56.815,39.996,84.642l0.836,1.408c3.226,5.572,6.528,11.128,9.993,16.7l0.896,1.408     c3.439,5.47,6.921,10.931,10.564,16.367l5.743,8.354c2.142,3.123,4.275,6.238,6.485,9.336     c4.361,6.076,8.832,12.134,13.466,18.176c49.399,64.324,106.308,115.968,173.969,157.858l2.773,1.741     c9.822,6.016,20.275,12.032,31.061,17.869l4.215,2.27c11.162,5.939,21.768,11.264,32.427,16.256l3.319,1.51     c12.587,5.828,24.098,10.837,35.174,15.3c13.406,5.41,19.61,7.066,29.03,7.066c1.673,0,3.456-0.051,5.402-0.145     c6.076-0.29,11.537-1.195,16.708-2.773c7.262-2.202,14.532-5.897,22.852-11.64c1.451-0.998,2.901-2.014,4.463-3.166     c1.843-1.357,3.806-3.021,5.794-4.736c9.481-8.201,20.361-20.113,29.124-31.863c4.676-6.272,10.889-15.377,13.986-23.194     c2.901-7.313,4.215-14.609,3.908-21.666V413.822z"/>
            </g>
        </defs>
        <use xlink:href="#viber" transform="translate(0 0 512.019 512.019)"/>
    </symbol>

    <symbol viewBox="0 0 18.61 18.61" id="skype-icon" xmlns="http://www.w3.org/2000/svg">
        <defs>
            <g id="skype">
                <path d="M17.973,10.617c0.059-0.427,0.089-0.846,0.089-1.251c0-2.437-0.846-4.544-2.513-6.263   c-1.685-1.735-3.755-2.615-6.152-2.615c-0.279,0-0.546,0.013-0.801,0.038C7.84,0.176,7.028,0,6.17,0   C4.561,0,3.117,0.61,1.996,1.765C0.891,2.9,0.305,4.35,0.305,5.957c0,0.832,0.156,1.619,0.466,2.348   c-0.047,0.357-0.07,0.713-0.07,1.062c0,2.438,0.853,4.547,2.532,6.267c1.693,1.732,3.768,2.61,6.164,2.61   c0.254,0,0.547-0.02,0.896-0.06c0.69,0.283,1.409,0.426,2.146,0.426c1.588,0,3.025-0.614,4.157-1.777   c1.117-1.143,1.709-2.6,1.709-4.211C18.305,11.945,18.194,11.273,17.973,10.617z M12.805,12.653   c-0.284,0.427-0.729,0.781-1.339,1.065c-0.609,0.243-1.31,0.365-2.1,0.365c-0.954,0-1.756-0.173-2.404-0.519   c-0.467-0.262-0.833-0.598-1.096-1.003c-0.284-0.447-0.428-0.862-0.428-1.248c0-0.243,0.092-0.457,0.274-0.639   c0.184-0.184,0.416-0.274,0.7-0.274c0.203,0,0.406,0.072,0.609,0.213c0.162,0.162,0.283,0.366,0.364,0.609   c0.021,0.02,0.153,0.253,0.396,0.7c0.102,0.141,0.284,0.283,0.547,0.425c0.245,0.122,0.568,0.183,0.975,0.183   c0.548,0,1.005-0.121,1.37-0.364c0.324-0.224,0.486-0.507,0.486-0.853c0-0.284-0.092-0.498-0.274-0.639   c-0.183-0.184-0.415-0.324-0.699-0.427c-0.081-0.021-0.188-0.047-0.319-0.075c-0.133-0.031-0.285-0.071-0.457-0.123   C9.238,9.998,9.09,9.963,8.969,9.943C8.28,9.802,7.692,9.619,7.203,9.395C6.777,9.233,6.392,8.95,6.047,8.544   c-0.283-0.386-0.426-0.843-0.426-1.37c0-0.528,0.152-0.994,0.457-1.4c0.304-0.406,0.74-0.711,1.308-0.913   c0.569-0.224,1.219-0.334,1.949-0.334c0.548,0,1.066,0.07,1.552,0.213c0.468,0.162,0.843,0.355,1.127,0.579   c0.263,0.243,0.477,0.486,0.639,0.729c0.142,0.324,0.214,0.589,0.214,0.791c0,0.265-0.092,0.488-0.275,0.669   c-0.201,0.204-0.436,0.306-0.699,0.306c-0.223,0-0.416-0.061-0.578-0.184c-0.102-0.101-0.233-0.283-0.396-0.547   c-0.121-0.284-0.314-0.537-0.577-0.762c-0.243-0.182-0.619-0.273-1.127-0.273c-0.507,0-0.892,0.102-1.156,0.305   C7.775,6.537,7.633,6.749,7.633,6.992c0,0.162,0.05,0.296,0.152,0.396c0.102,0.143,0.232,0.255,0.396,0.336   c0.102,0.06,0.274,0.132,0.518,0.212c0.061,0.021,0.197,0.057,0.41,0.106C9.322,8.095,9.5,8.129,9.642,8.149   c0.283,0.061,0.771,0.192,1.461,0.396c0.406,0.141,0.791,0.323,1.156,0.548c0.346,0.242,0.599,0.517,0.762,0.82   c0.162,0.365,0.242,0.771,0.242,1.217C13.261,11.678,13.109,12.186,12.805,12.653z"/>
            </g>
        </defs>
        <use xlink:href="#skype" transform="translate(0 0 18.61 18.61)"/>
    </symbol>

    <symbol viewBox="0 0 90 90" id="whatsapp-icon" xmlns="http://www.w3.org/2000/svg">
        <defs>
            <g id="whatsapp">
                <path id="WhatsApp"
                      d="M90,43.841c0,24.213-19.779,43.841-44.182,43.841c-7.747,0-15.025-1.98-21.357-5.455L0,90l7.975-23.522   c-4.023-6.606-6.34-14.354-6.34-22.637C1.635,19.628,21.416,0,45.818,0C70.223,0,90,19.628,90,43.841z M45.818,6.982   c-20.484,0-37.146,16.535-37.146,36.859c0,8.065,2.629,15.534,7.076,21.61L11.107,79.14l14.275-4.537   c5.865,3.851,12.891,6.097,20.437,6.097c20.481,0,37.146-16.533,37.146-36.857S66.301,6.982,45.818,6.982z M68.129,53.938   c-0.273-0.447-0.994-0.717-2.076-1.254c-1.084-0.537-6.41-3.138-7.4-3.495c-0.993-0.358-1.717-0.538-2.438,0.537   c-0.721,1.076-2.797,3.495-3.43,4.212c-0.632,0.719-1.263,0.809-2.347,0.271c-1.082-0.537-4.571-1.673-8.708-5.333   c-3.219-2.848-5.393-6.364-6.025-7.441c-0.631-1.075-0.066-1.656,0.475-2.191c0.488-0.482,1.084-1.255,1.625-1.882   c0.543-0.628,0.723-1.075,1.082-1.793c0.363-0.717,0.182-1.344-0.09-1.883c-0.27-0.537-2.438-5.825-3.34-7.977   c-0.902-2.15-1.803-1.792-2.436-1.792c-0.631,0-1.354-0.09-2.076-0.09c-0.722,0-1.896,0.269-2.889,1.344   c-0.992,1.076-3.789,3.676-3.789,8.963c0,5.288,3.879,10.397,4.422,11.113c0.541,0.716,7.49,11.92,18.5,16.223   C58.2,65.771,58.2,64.336,60.186,64.156c1.984-0.179,6.406-2.599,7.312-5.107C68.398,56.537,68.398,54.386,68.129,53.938z"/>
            </g>
        </defs>
        <use xlink:href="#whatsapp" transform="translate(0 0 90 90)"/>
    </symbol>

    <symbol viewBox="0 0 300 300" id="telegram-icon" xmlns="http://www.w3.org/2000/svg">
        <defs>
            <g id="telegram">
                <path id="XMLID_497_"
                      d="M5.299,144.645l69.126,25.8l26.756,86.047c1.712,5.511,8.451,7.548,12.924,3.891l38.532-31.412   c4.039-3.291,9.792-3.455,14.013-0.391l69.498,50.457c4.785,3.478,11.564,0.856,12.764-4.926L299.823,29.22   c1.31-6.316-4.896-11.585-10.91-9.259L5.218,129.402C-1.783,132.102-1.722,142.014,5.299,144.645z M96.869,156.711l135.098-83.207   c2.428-1.491,4.926,1.792,2.841,3.726L123.313,180.87c-3.919,3.648-6.447,8.53-7.163,13.829l-3.798,28.146   c-0.503,3.758-5.782,4.131-6.819,0.494l-14.607-51.325C89.253,166.16,91.691,159.907,96.869,156.711z"/>
            </g>
        </defs>
        <use xlink:href="#telegram" transform="translate(0 0 300 300)"/>
    </symbol>

    <symbol viewBox="0 0 90 90.001" id="pencil-icon" xmlns="http://www.w3.org/2000/svg">
        <defs>
            <g id="pencil-one">
                <path id="LiveJournal"
                      d="M78.84,87.629c-0.104,0-0.207-0.02-0.305-0.062L48.119,74.864c-0.246-0.103-0.423-0.322-0.474-0.582   c-0.049-0.263,0.035-0.529,0.228-0.716c3.496-3.396,5.421-7.947,5.421-12.816c0-2.062-0.351-4.087-1.041-6.02   c-0.03-0.086-0.046-0.17-0.047-0.256L29.997,24.668c-4.462,3.861-8.684,9.629-8.207,15.252c0.037,0.436-0.286,0.819-0.723,0.854   c-0.424,0.034-0.816-0.284-0.854-0.72c-0.568-6.713,4.746-13.465,9.908-17.543c6.219-4.914,12.965-7.016,17.605-5.49   c0.414,0.136,0.642,0.582,0.504,0.999c-0.136,0.414-0.579,0.641-0.998,0.501c-4.05-1.33-10.326,0.685-16.014,5.139L53.9,54.1   c5.855,3.592,13.716,3.408,19.412-0.496c0.224-0.155,0.511-0.184,0.762-0.074s0.425,0.336,0.469,0.604l5.078,32.584   c0.044,0.283-0.067,0.566-0.292,0.745C79.187,87.571,79.015,87.629,78.84,87.629z M49.798,73.85l28.044,11.713l-4.678-29.989   c-5.653,3.37-13.012,3.581-18.837,0.582c0.363,1.497,0.548,3.038,0.548,4.595C54.875,65.654,53.081,70.262,49.798,73.85z    M14.948,32.201c-0.406,0-0.752-0.312-0.787-0.724c-0.568-6.713,4.744-13.461,9.908-17.541c6.219-4.912,12.965-7.016,17.605-5.492   c0.414,0.138,0.641,0.584,0.504,0.998c-0.137,0.416-0.578,0.646-0.998,0.506c-4.084-1.341-10.412,0.711-16.132,5.23   c-4.839,3.823-9.827,10.078-9.312,16.163c0.037,0.437-0.285,0.819-0.722,0.854C14.993,32.201,14.971,32.201,14.948,32.201z    M68.427,82.49c1.15-3.956,4.431-7.003,8.517-7.814L78.84,86.84L68.427,82.49L68.427,82.49z M32.933,3.163   C22.62,3.163,6.6,17.746,12.382,27.997l34.086,45.319L78.84,86.838l-5.522-35.422L39.231,6.288   C37.799,4.102,35.55,3.163,32.933,3.163 M32.933,0c3.802,0,6.951,1.582,8.881,4.459L75.841,49.51   c0.312,0.416,0.521,0.904,0.602,1.422l5.522,35.418c0.177,1.133-0.272,2.271-1.172,2.978c-0.567,0.444-1.256,0.674-1.953,0.674   c-0.412,0-0.826-0.081-1.221-0.243L45.249,76.234c-0.52-0.215-0.972-0.565-1.31-1.018L9.853,29.899   c-0.083-0.113-0.159-0.227-0.227-0.349c-2.472-4.381-2.12-9.728,0.99-15.054C15.286,6.504,25.296,0,32.933,0L32.933,0z"/>
            </g>
        </defs>
        <use xlink:href="#pencil-one" transform="translate(0 0 90 90.001)"/>
    </symbol>

    <symbol viewBox="0 0 612 612" id="mail-icon" xmlns="http://www.w3.org/2000/svg">
        <defs>
            <g id="mail-one">
                <path d="M306.768,346.814h0.131c4.615,0,9.176-1.339,12.866-3.777l1.001-0.643c0.218-0.142,0.446-0.271,0.675-0.424l11.658-9.645   l278.259-229.624c-0.576-0.795-1.557-1.339-2.602-1.339H3.233c-0.751,0-1.448,0.272-2.003,0.729l291.125,239.954   C296.024,345.083,301.259,346.814,306.768,346.814z M0,133.899v340.37l208.55-168.471L0,133.899z M403.668,306.941L612,474.356   V135.031L403.668,306.941z M337.431,361.585c-8.305,6.814-19.168,10.57-30.576,10.57c-11.451,0-22.304-3.734-30.587-10.516   l-47.765-39.394L0,506.806v0.587c0,1.753,1.502,3.244,3.276,3.244h605.491c1.741,0,3.232-1.491,3.232-3.255v-0.544L383.693,323.4   L337.431,361.585z"/>
            </g>
        </defs>
        <use xlink:href="#mail-one" transform="translate(0 0 612 612)"/>
    </symbol>

    <symbol viewBox="0 0 512 512" id="wa-icon" xmlns="http://www.w3.org/2000/svg">
        <defs>
            <g id="wa">
                <path d="M256.064,0h-0.128C114.784,0,0,114.816,0,256c0,56,18.048,107.904,48.736,150.048l-31.904,95.104l98.4-31.456    C155.712,496.512,204,512,256.064,512C397.216,512,512,397.152,512,256S397.216,0,256.064,0z M405.024,361.504    c-6.176,17.44-30.688,31.904-50.24,36.128c-13.376,2.848-30.848,5.12-89.664-19.264C189.888,347.2,141.44,270.752,137.664,265.792    c-3.616-4.96-30.4-40.48-30.4-77.216s18.656-54.624,26.176-62.304c6.176-6.304,16.384-9.184,26.176-9.184    c3.168,0,6.016,0.16,8.576,0.288c7.52,0.32,11.296,0.768,16.256,12.64c6.176,14.88,21.216,51.616,23.008,55.392    c1.824,3.776,3.648,8.896,1.088,13.856c-2.4,5.12-4.512,7.392-8.288,11.744c-3.776,4.352-7.36,7.68-11.136,12.352    c-3.456,4.064-7.36,8.416-3.008,15.936c4.352,7.36,19.392,31.904,41.536,51.616c28.576,25.44,51.744,33.568,60.032,37.024    c6.176,2.56,13.536,1.952,18.048-2.848c5.728-6.176,12.8-16.416,20-26.496c5.12-7.232,11.584-8.128,18.368-5.568    c6.912,2.4,43.488,20.48,51.008,24.224c7.52,3.776,12.48,5.568,14.304,8.736C411.2,329.152,411.2,344.032,405.024,361.504z"
                      class="active-path"/>
            </g>
        </defs>
        <use xlink:href="#wa" transform="translate(0 0 512 512)"/>
    </symbol>
    <symbol viewBox="0 0 55.867 55.867" id="star-icon" xmlns="http://www.w3.org/2000/svg">
        <defs>
            <g id="star">
                <path xmlns="http://www.w3.org/2000/svg"
                      d="M55.818,21.578c-0.118-0.362-0.431-0.626-0.808-0.681L36.92,18.268L28.83,1.876c-0.168-0.342-0.516-0.558-0.896-0.558  s-0.729,0.216-0.896,0.558l-8.091,16.393l-18.09,2.629c-0.377,0.055-0.689,0.318-0.808,0.681c-0.117,0.361-0.02,0.759,0.253,1.024  l13.091,12.76l-3.091,18.018c-0.064,0.375,0.09,0.754,0.397,0.978c0.309,0.226,0.718,0.255,1.053,0.076l16.182-8.506l16.18,8.506  c0.146,0.077,0.307,0.115,0.466,0.115c0.207,0,0.413-0.064,0.588-0.191c0.308-0.224,0.462-0.603,0.397-0.978l-3.09-18.017  l13.091-12.761C55.838,22.336,55.936,21.939,55.818,21.578z"/>
            </g>
        </defs>
        <use xlink:href="#star" transform="translate(0 0 55.867 55.867)"/>
    </symbol>
</svg>

